<?xml version="1.0" encoding="UTF-8" standalone="no"?><svg width="215" height="64" viewBox="0 0 215 64" fill="none" xmlns="http://www.w3.org/2000/svg">
<path d="M105.275 33.6859V17.3188C105.275 14.9028 104.286 13.1856 101.732 13.1856C99.5153 13.1856 97.6897 14.7963 96.8095 16.1937V33.6859H90.5068V17.3188C90.5068 14.9028 89.5179 13.1856 86.9643 13.1856C84.8018 13.1856 82.9762 14.7963 82.0417 16.2411V33.6859H75.7825V7.76148H82.0417V11.1486C83.0305 9.59716 86.1819 7.12196 89.8222 7.12196C93.3213 7.12196 95.5381 8.89841 96.4183 11.8473C97.7983 9.49057 100.95 7.12196 104.59 7.12196C108.969 7.12196 111.588 9.64453 111.588 14.9621V33.6978H105.275V33.6859Z" fill="#FFC907"/>
<path d="M118.172 29.8247C115.814 27.2548 114.63 24.1519 114.63 20.5161C114.63 16.8921 115.814 13.7892 118.172 11.2193C120.53 8.63749 123.378 7.3466 126.714 7.3466C130.039 7.3466 132.886 8.63749 135.244 11.2193C137.613 13.7892 138.797 16.8921 138.797 20.5161V33.6855H132.745V20.5161C132.745 18.7041 132.147 17.1645 130.962 15.8736C129.778 14.5827 128.365 13.9313 126.703 13.9313C125.04 13.9313 123.617 14.5827 122.432 15.8736C121.259 17.1645 120.661 18.7041 120.661 20.5161C120.661 22.3281 121.248 23.8795 122.432 25.1704C123.617 26.4613 125.04 27.1008 126.703 27.1008V33.6855C123.378 33.6855 120.53 32.3946 118.172 29.8247Z" fill="#FFC907"/>
<path d="M155.782 19.5224L165.193 7.77407H157.51L148.502 19.3092V3.91323C147.48 4.23299 146.404 4.42248 145.285 4.42248C144.231 4.42248 143.22 4.25668 142.242 3.9606V33.6985H148.502V27.0427L151.359 23.7148L157.662 33.6985H165.497L155.782 19.5224Z" fill="#FFC907"/>
<path d="M167.941 29.8247C165.583 27.2548 164.398 24.1519 164.398 20.5161C164.398 16.8921 165.583 13.7892 167.941 11.2193C170.299 8.63749 173.146 7.3466 176.482 7.3466C179.807 7.3466 182.654 8.63749 185.012 11.2193C187.381 13.7892 188.566 16.8921 188.566 20.5161V33.6855H182.524V20.5161C182.524 18.7041 181.926 17.1645 180.742 15.8736C179.557 14.5827 178.145 13.9313 176.482 13.9313C174.82 13.9313 173.396 14.5827 172.212 15.8736C171.038 17.1645 170.44 18.7041 170.44 20.5161C170.44 22.3281 171.027 23.8795 172.212 25.1704C173.396 26.4613 174.82 27.1008 176.482 27.1008V33.6855C173.146 33.6855 170.299 32.3946 167.941 29.8247Z" fill="#FFC907"/>
<path d="M207.953 33.6859V18.0176C207.953 14.4173 206.225 13.1856 203.574 13.1856C201.107 13.1856 199.194 14.6897 198.162 16.2411V33.6859H191.903V7.76148H198.162V11.1486C199.683 9.15896 202.596 7.12196 206.486 7.12196C211.702 7.12196 214.212 10.3433 214.212 15.3884V33.6859H207.953Z" fill="#FFC907"/>
<path d="M3.8147e-05 31.9999C3.8147e-05 49.673 13.7979 63.9999 30.8183 63.9999C47.8387 63.9999 61.6365 49.673 61.6365 31.9999C61.6365 14.3268 47.8387 -0.000137329 30.8183 -0.000137329C13.7979 -0.000137329 3.8147e-05 14.3268 3.8147e-05 31.9999Z" fill="url(#paint0_linear_1_820)"/>
<g filter="url(#filter0_d_1_820)">
<path d="M45.9627 19.7412C44.9493 19.7412 43.9358 19.9033 42.9744 20.241C41.8051 14.4597 36.764 10.1507 30.7745 10.1507C24.785 10.1507 19.744 14.4462 18.5746 20.241C17.6132 19.9168 16.5998 19.7412 15.5864 19.7412C10.0906 19.7412 5.60821 24.55 5.60821 30.4529C5.60821 36.3559 10.0776 41.1646 15.5864 41.1646C16.0671 41.1646 16.5478 41.1241 17.0285 41.0431V48.729C17.0285 49.4855 17.6262 50.1203 18.3668 50.1203H24.2393C24.9669 50.1203 25.5776 49.499 25.5776 48.729C25.5776 47.9591 24.9799 47.3377 24.2393 47.3377H19.692V39.2735C19.692 38.8278 19.4841 38.3955 19.1333 38.1389C18.7825 37.8822 18.3278 37.8147 17.912 37.9633C17.1455 38.247 16.3529 38.382 15.5734 38.382C11.5457 38.382 8.27165 34.816 8.27165 30.4394C8.27165 26.0629 11.5457 22.4968 15.5734 22.4968C16.7687 22.4968 17.951 22.821 19.0034 23.4289C19.4062 23.6585 19.8999 23.6585 20.3026 23.4289C20.7054 23.1992 20.9652 22.767 20.9912 22.2942C21.2511 17.0262 25.5516 12.9063 30.7745 12.9063C35.9975 12.9063 40.285 17.0262 40.5578 22.2942C40.5838 22.7805 40.8437 23.1992 41.2464 23.4289C41.6492 23.6585 42.1429 23.6585 42.5457 23.4289C43.598 22.821 44.7804 22.4968 45.9757 22.4968C50.0033 22.4968 53.2774 26.0629 53.2774 30.4394C53.2774 34.816 50.0033 38.382 45.9757 38.382C45.1961 38.382 44.4036 38.247 43.637 37.9633C43.2343 37.8147 42.7795 37.8822 42.4157 38.1389C42.0519 38.3955 41.8571 38.8278 41.8571 39.2735V47.3377H31.1643L29.0985 45.9464C23.5897 42.2453 23.5897 39.8004 23.5897 38.9899C23.5897 37.2339 24.9669 35.7885 26.6689 35.7885C27.9422 35.7885 29.0725 36.5855 29.5273 37.8147C29.7221 38.355 30.2159 38.6927 30.7745 38.6927C31.3202 38.6927 31.8139 38.3415 32.0218 37.8147C32.4895 36.5855 33.6069 35.7885 34.8801 35.7885C36.5691 35.7885 37.9593 37.2204 37.9593 38.9899C37.9593 39.7193 37.9593 41.2187 35.4258 43.6096C34.8801 44.1229 34.8412 45.0009 35.3349 45.5682C35.8286 46.1355 36.6731 46.176 37.2188 45.6627C40.6228 42.4479 40.6228 40.03 40.6228 38.9899C40.6228 35.694 38.0503 33.0194 34.8801 33.0194C33.2951 33.0194 31.8269 33.6813 30.7745 34.8025C29.7221 33.6813 28.254 33.0194 26.6689 33.0194C23.4988 33.0194 20.9263 35.694 20.9263 38.9899C20.9263 41.0296 21.6279 44.2174 27.6563 48.2698L30.0469 49.8772C30.2548 50.0258 30.5147 50.0933 30.7745 50.0933H43.1823C43.9229 50.0933 44.5205 49.4719 44.5205 48.702V41.0161C45.0012 41.0971 45.4819 41.1376 45.9627 41.1376C51.4585 41.1376 55.9408 36.3288 55.9408 30.4259C55.9408 24.55 51.4585 19.7412 45.9627 19.7412Z" fill="white" stroke="white" stroke-miterlimit="10"/>
</g>
<path d="M75.7826 52.5805L76.4895 51.1267C77.4856 51.9928 79.2048 52.6268 80.94 52.6268C83.2696 52.6268 84.2818 51.7608 84.2818 50.6164C84.2818 47.446 76.1039 49.441 76.1039 44.6313C76.1039 42.6363 77.7266 40.9197 81.2613 40.9197C82.8358 40.9197 84.4746 41.3218 85.5993 42.0641L84.9566 43.5487C83.7837 42.8219 82.4502 42.4971 81.2613 42.4971C78.9638 42.4971 77.9837 43.425 77.9837 44.554C77.9837 47.7244 86.1456 45.7448 86.1456 50.5081C86.1456 52.4877 84.4907 54.2043 80.9239 54.2043C78.8834 54.2198 76.859 53.5393 75.7826 52.5805Z" fill="#F6F8FF"/>
<path d="M104.382 54.0636L104.366 44.5989L99.4973 52.4862H98.6137L93.7455 44.6608V54.0636H91.8818V41.0728H93.4563L99.0796 50.1973L104.623 41.0728H106.197L106.213 54.0636H104.382Z" fill="#F6F8FF"/>
<path d="M121.765 50.8159H114.6L113.121 54.0636H111.129L117.235 41.0728H119.146L125.268 54.0636H123.243L121.765 50.8159ZM121.09 49.3313L118.182 42.9751L115.274 49.3313H121.09Z" fill="#F6F8FF"/>
<path d="M139.196 54.0628L136.287 50.0728C136.014 50.0883 135.725 50.1037 135.436 50.1037H132.11V54.0474H130.182V41.0565H135.436C138.938 41.0565 141.059 42.7577 141.059 45.5879C141.059 47.5829 139.983 49.0366 138.087 49.6862L141.284 54.0474H139.196V54.0628ZM139.147 45.6033C139.147 43.7475 137.862 42.6959 135.388 42.6959H132.11V48.5417H135.388C137.846 48.5417 139.147 47.4592 139.147 45.6033Z" fill="#F6F8FF"/>
<path d="M149.576 42.696H144.949V41.0876H156.099V42.696H151.472V54.0629H149.56V42.696H149.576Z" fill="#F6F8FF"/>
<path d="M180.072 45.6042C180.072 48.4188 177.951 50.1355 174.449 50.1355H171.123V54.0636H169.195V41.0728H174.449C177.951 41.0728 180.072 42.7895 180.072 45.6042ZM178.144 45.6042C178.144 43.7483 176.859 42.6967 174.384 42.6967H171.107V48.5271H174.384C176.859 48.5116 178.144 47.46 178.144 45.6042Z" fill="#F6F8FF"/>
<path d="M184.892 47.5692C184.892 43.7647 187.945 40.9346 192.074 40.9346C196.171 40.9346 199.224 43.7492 199.224 47.5692C199.224 51.3891 196.171 54.2037 192.074 54.2037C187.945 54.2192 184.892 51.3736 184.892 47.5692ZM197.312 47.5692C197.312 44.6926 195.078 42.5739 192.09 42.5739C189.069 42.5739 186.836 44.6926 186.836 47.5692C186.836 50.4457 189.069 52.5644 192.09 52.5644C195.078 52.5644 197.312 50.4457 197.312 47.5692Z" fill="#F6F8FF"/>
<path d="M203.849 52.5789L204.556 51.1251C205.552 51.9912 207.271 52.6252 209.006 52.6252C211.336 52.6252 212.348 51.7592 212.348 50.6148C212.348 47.4444 204.17 49.4394 204.17 44.6297C204.17 42.6347 205.793 40.9181 209.328 40.9181C210.902 40.9181 212.541 41.3202 213.666 42.0625L213.023 43.5472C211.85 42.8203 210.517 42.4955 209.328 42.4955C207.03 42.4955 206.05 43.4234 206.05 44.5524C206.05 47.7228 214.212 45.7432 214.212 50.5065C214.212 52.4861 212.557 54.2027 208.99 54.2027C206.95 54.2182 204.926 53.5377 203.849 52.5789Z" fill="#F6F8FF"/>
<defs>
<filter id="filter0_d_1_820" x="4.10821" y="8.65069" width="59.3326" height="48.9696" filterUnits="userSpaceOnUse" color-interpolation-filters="sRGB">
<feFlood flood-opacity="0" result="BackgroundImageFix"/>
<feColorMatrix in="SourceAlpha" type="matrix" values="0 0 0 0 0 0 0 0 0 0 0 0 0 0 0 0 0 0 127 0" result="hardAlpha"/>
<feOffset dx="3" dy="3"/>
<feGaussianBlur stdDeviation="2"/>
<feComposite in2="hardAlpha" operator="out"/>
<feColorMatrix type="matrix" values="0 0 0 0 0 0 0 0 0 0 0 0 0 0 0 0 0 0 0.25 0"/>
<feBlend mode="normal" in2="BackgroundImageFix" result="effect1_dropShadow_1_820"/>
<feBlend mode="normal" in="SourceGraphic" in2="effect1_dropShadow_1_820" result="shape"/>
</filter>
<linearGradient id="paint0_linear_1_820" x1="30.8183" y1="63.9999" x2="30.8183" y2="-0.340016" gradientUnits="userSpaceOnUse">
<stop stop-color="#FFD72D"/>
<stop offset="0.2097" stop-color="#FFD22B"/>
<stop offset="0.6592" stop-color="#FFD325"/>
<stop offset="0.7415" stop-color="#FFCF24"/>
<stop offset="0.8216" stop-color="#FFC320"/>
<stop offset="0.901" stop-color="#FFB019"/>
<stop offset="0.9794" stop-color="#FF9510"/>
<stop offset="1" stop-color="#FF8C0D"/>
</linearGradient>
</defs>
</svg>
