<?xml version="1.0" encoding="UTF-8" standalone="no"?><svg width="550" height="740" viewBox="0 0 550 740" fill="none" xmlns="http://www.w3.org/2000/svg">
<path d="M0 274.984C0 426.853 122.958 549.968 274.634 549.968C426.31 549.968 549.268 426.853 549.268 274.984C549.268 123.115 426.31 0 274.634 0C122.958 0 0 123.115 0 274.984Z" fill="url(#paint0_linear_101_63)"/>
<g filter="url(#filter0_d_101_63)">
<path d="M410.114 169.644C401.072 169.644 392.03 171.037 383.451 173.939C373.017 124.258 328.037 87.2299 274.594 87.2299C221.151 87.2299 176.171 124.142 165.738 173.939C157.159 171.153 148.117 169.644 139.074 169.644C90.0365 169.644 50.0413 210.967 50.0413 261.692C50.0413 312.417 89.9206 353.74 139.074 353.74C143.364 353.74 147.653 353.392 151.942 352.696V418.743C151.942 425.243 157.275 430.699 163.883 430.699H216.282C222.774 430.699 228.223 425.359 228.223 418.743C228.223 412.126 222.89 406.787 216.282 406.787H175.707V337.49C175.707 333.659 173.853 329.945 170.723 327.739C167.593 325.534 163.535 324.953 159.825 326.23C152.986 328.668 145.914 329.829 138.958 329.829C103.02 329.829 73.8066 299.185 73.8066 261.576C73.8066 223.967 103.02 193.323 138.958 193.323C149.624 193.323 160.173 196.109 169.563 201.333C173.157 203.306 177.562 203.306 181.156 201.333C184.75 199.359 187.068 195.645 187.3 191.582C189.619 146.313 227.991 110.909 274.594 110.909C321.197 110.909 359.454 146.313 361.888 191.582C362.12 195.761 364.439 199.359 368.032 201.333C371.626 203.306 376.032 203.306 379.625 201.333C389.015 196.109 399.565 193.323 410.23 193.323C446.168 193.323 475.382 223.967 475.382 261.576C475.382 299.185 446.168 329.829 410.23 329.829C403.275 329.829 396.203 328.668 389.363 326.23C385.769 324.953 381.712 325.534 378.466 327.739C375.22 329.945 373.481 333.659 373.481 337.49V406.787H278.072L259.64 394.831C210.486 363.026 210.486 342.017 210.486 335.052C210.486 319.962 222.774 307.542 237.961 307.542C249.322 307.542 259.408 314.391 263.465 324.953C265.204 329.596 269.609 332.498 274.594 332.498C279.463 332.498 283.869 329.48 285.723 324.953C289.897 314.391 299.867 307.542 311.228 307.542C326.298 307.542 338.703 319.846 338.703 335.052C338.703 341.32 338.703 354.205 316.097 374.75C311.228 379.161 310.88 386.706 315.285 391.581C319.69 396.456 327.226 396.804 332.095 392.394C362.468 364.767 362.468 343.99 362.468 335.052C362.468 306.73 339.514 283.747 311.228 283.747C297.084 283.747 283.984 289.434 274.594 299.069C265.204 289.434 252.104 283.747 237.961 283.747C209.674 283.747 186.721 306.73 186.721 335.052C186.721 352.58 192.981 379.973 246.772 414.796L268.102 428.609C269.957 429.886 272.276 430.466 274.594 430.466H385.306C391.914 430.466 397.246 425.127 397.246 418.511V352.463C401.536 353.16 405.825 353.508 410.114 353.508C459.152 353.508 499.147 312.185 499.147 261.46C499.147 210.967 459.152 169.644 410.114 169.644Z" fill="white" stroke="white" stroke-width="14.6667" stroke-miterlimit="10"/>
</g>
<path d="M153.677 660.214V612.819C153.677 605.823 150.704 600.85 143.025 600.85C136.36 600.85 130.871 605.514 128.224 609.561V660.214H109.273V612.819C109.273 605.823 106.3 600.85 98.6214 600.85C92.1193 600.85 86.6301 605.514 83.8202 609.698V660.214H65V585.143H83.8202V594.951C86.7935 590.459 96.2689 583.291 107.215 583.291C117.736 583.291 124.401 588.435 127.048 596.975C131.197 590.15 140.673 583.291 151.618 583.291C164.786 583.291 172.66 590.596 172.66 605.994V660.248H153.677V660.214Z" fill="#FFC907"/>
<path d="M192.458 649.033C185.368 641.591 181.807 632.606 181.807 622.077C181.807 611.583 185.368 602.598 192.458 595.156C199.549 587.68 208.109 583.942 218.14 583.942C228.138 583.942 236.699 587.68 243.789 595.156C250.912 602.598 254.473 611.583 254.473 622.077V660.213H236.274V622.077C236.274 616.83 234.477 612.372 230.915 608.634C227.354 604.896 223.106 603.009 218.107 603.009C213.108 603.009 208.828 604.896 205.266 608.634C201.738 612.372 199.941 616.83 199.941 622.077C199.941 627.324 201.705 631.817 205.266 635.555C208.828 639.293 213.108 641.145 218.107 641.145V660.213C208.109 660.213 199.549 656.475 192.458 649.033Z" fill="#FFC907"/>
<path d="M305.543 619.2L333.839 585.18H310.739L283.652 618.583V574C280.581 574.926 277.346 575.475 273.98 575.475C270.811 575.475 267.772 574.995 264.832 574.137V660.251H283.652V640.977L292.245 631.341L311.196 660.251H334.754L305.543 619.2Z" fill="#FFC907"/>
<path d="M342.102 649.033C335.012 641.591 331.45 632.606 331.45 622.077C331.45 611.583 335.012 602.598 342.102 595.156C349.192 587.68 357.753 583.942 367.784 583.942C377.782 583.942 386.342 587.68 393.433 595.156C400.555 602.598 404.117 611.583 404.117 622.077V660.213H385.95V622.077C385.95 616.83 384.153 612.372 380.592 608.634C377.03 604.896 372.783 603.009 367.784 603.009C362.784 603.009 358.504 604.896 354.943 608.634C351.414 612.372 349.617 616.83 349.617 622.077C349.617 627.324 351.381 631.817 354.943 635.555C358.504 639.293 362.784 641.145 367.784 641.145V660.213C357.753 660.213 349.192 656.475 342.102 649.033Z" fill="#FFC907"/>
<path d="M462.41 660.214V614.842C462.41 604.417 457.215 600.85 449.242 600.85C441.825 600.85 436.075 605.206 432.971 609.698V660.214H414.15V585.143H432.971V594.951C437.545 589.19 446.301 583.291 457.999 583.291C473.682 583.291 481.23 592.619 481.23 607.229V660.214H462.41Z" fill="#FFC907"/>
<path d="M12 733.277L14.6839 727.259C18.4657 730.845 24.9925 733.469 31.5802 733.469C40.4249 733.469 44.2678 729.884 44.2678 725.146C44.2678 712.022 13.22 720.281 13.22 700.369C13.22 692.11 19.3807 685.004 32.8002 685.004C38.778 685.004 44.9997 686.668 49.2696 689.742L46.8296 695.888C42.3768 692.879 37.314 691.534 32.8002 691.534C24.0775 691.534 20.3567 695.376 20.3567 700.049C20.3567 713.174 51.3435 704.979 51.3435 724.698C51.3435 732.893 45.0607 740 31.5193 740C23.7726 740.064 16.0868 737.247 12 733.277Z" fill="#696A6D"/>
<path d="M120.578 739.42L120.517 700.238L102.034 732.89H98.6793L80.197 700.494V739.42H73.1213V685.64H79.0991L100.448 723.414L121.492 685.64H127.47L127.531 739.42H120.578Z" fill="#696A6D"/>
<path d="M186.576 725.975H159.371L153.759 739.42H146.195L169.374 685.64H176.633L199.873 739.42H192.187L186.576 725.975ZM184.014 719.829L172.973 693.515L161.932 719.829H184.014Z" fill="#696A6D"/>
<path d="M252.752 739.417L241.711 722.899C240.674 722.963 239.576 723.027 238.478 723.027H225.852V739.353H218.532V685.574H238.478C251.776 685.574 259.827 692.616 259.827 704.332C259.827 712.591 255.741 718.61 248.543 721.299L260.681 739.353H252.752V739.417ZM252.569 704.397C252.569 696.714 247.689 692.36 238.295 692.36H225.852V716.561H238.295C247.628 716.561 252.569 712.079 252.569 704.397Z" fill="#696A6D"/>
<path d="M292.161 692.36H274.594V685.702H316.926V692.36H299.359V739.417H292.1V692.36H292.161Z" fill="#696A6D"/>
<path d="M407.94 704.399C407.94 716.051 399.888 723.158 386.591 723.158H373.964V739.42H366.644V685.64H386.591C399.888 685.64 407.94 692.747 407.94 704.399ZM400.62 704.399C400.62 696.716 395.74 692.363 386.347 692.363H373.903V716.5H386.347C395.74 716.436 400.62 712.082 400.62 704.399Z" fill="#696A6D"/>
<path d="M426.239 712.533C426.239 696.783 437.829 685.067 453.505 685.067C469.06 685.067 480.649 696.719 480.649 712.533C480.649 728.347 469.06 739.999 453.505 739.999C437.829 740.063 426.239 728.282 426.239 712.533ZM473.391 712.533C473.391 700.624 464.912 691.853 453.566 691.853C442.099 691.853 433.62 700.624 433.62 712.533C433.62 724.441 442.099 733.212 453.566 733.212C464.912 733.212 473.391 724.441 473.391 712.533Z" fill="#696A6D"/>
<path d="M498.21 733.274L500.894 727.255C504.676 730.841 511.203 733.466 517.791 733.466C526.635 733.466 530.478 729.88 530.478 725.143C530.478 712.018 499.43 720.277 499.43 700.366C499.43 692.107 505.591 685 519.011 685C524.988 685 531.21 686.665 535.48 689.738L533.04 695.884C528.587 692.875 523.525 691.53 519.011 691.53C510.288 691.53 506.567 695.372 506.567 700.046C506.567 713.17 537.554 704.975 537.554 724.694C537.554 732.889 531.271 739.996 517.73 739.996C509.983 740.06 502.297 737.243 498.21 733.274Z" fill="#696A6D"/>
<defs>
<filter id="filter0_d_101_63" x="42.708" y="79.8966" width="477.773" height="372.135" filterUnits="userSpaceOnUse" color-interpolation-filters="sRGB">
<feFlood flood-opacity="0" result="BackgroundImageFix"/>
<feColorMatrix in="SourceAlpha" type="matrix" values="0 0 0 0 0 0 0 0 0 0 0 0 0 0 0 0 0 0 127 0" result="hardAlpha"/>
<feOffset dx="10" dy="10"/>
<feGaussianBlur stdDeviation="2"/>
<feComposite in2="hardAlpha" operator="out"/>
<feColorMatrix type="matrix" values="0 0 0 0 0 0 0 0 0 0 0 0 0 0 0 0 0 0 0.25 0"/>
<feBlend mode="normal" in2="BackgroundImageFix" result="effect1_dropShadow_101_63"/>
<feBlend mode="normal" in="SourceGraphic" in2="effect1_dropShadow_101_63" result="shape"/>
</filter>
<linearGradient id="paint0_linear_101_63" x1="274.634" y1="549.968" x2="274.634" y2="-2.92066" gradientUnits="userSpaceOnUse">
<stop stop-color="#FFD72D"/>
<stop offset="0.2097" stop-color="#FFD22B"/>
<stop offset="0.6592" stop-color="#FFD325"/>
<stop offset="0.7415" stop-color="#FFCF24"/>
<stop offset="0.8216" stop-color="#FFC320"/>
<stop offset="0.901" stop-color="#FFB019"/>
<stop offset="0.9794" stop-color="#FF9510"/>
<stop offset="1" stop-color="#FF8C0D"/>
</linearGradient>
</defs>
</svg>
